<?xml version="1.0" encoding="UTF-8"?> <svg xmlns="http://www.w3.org/2000/svg" width="107" height="31" viewBox="0 0 107 31" fill="none"><path d="M13.3096 29.1526C12.1426 30.6688 10.6922 30.6729 9.34037 29.3621C7.30645 27.4474 5.31774 25.6682 3.30026 23.8233C1.11158 21.8209 0.0158736 19.3556 0.0131343 16.4273C0.0131343 14.8577 0.0377878 13.2922 0.000807588 11.7226C-0.0156281 11.0199 0.21858 10.4899 0.723976 10.0174C3.72348 7.19866 6.69834 4.3594 9.70606 1.5489C10.8976 0.435384 11.7975 0.37375 13.0137 1.8242C13.9547 2.94593 13.2726 3.80469 11.2551 5.82217C9.48418 7.59311 7.62284 9.23257 5.78205 10.9295C5.30952 11.3651 5.54784 11.7472 5.93408 12.0842C7.17908 13.1648 8.41586 14.2578 9.67319 15.3261C10.2525 15.815 11.7646 17.2696 11.9742 17.4709C12.8987 18.3626 13.5315 19.3282 13.5315 20.717C13.5315 21.6702 13.4904 27.0447 13.478 28.9102C13.478 28.9102 13.4082 29.0088 13.3055 29.1485L13.3096 29.1526ZM9.02809 23.2275C9.02809 22.0359 9.1267 21.2183 8.54735 20.4663C7.35987 18.9255 6.09022 18.0133 4.74249 16.6286C4.50829 16.3862 4.26175 16.4273 4.24121 16.7765C4.19601 17.5572 4.007 18.3585 4.61512 19.057C5.93819 20.5814 7.48725 21.8634 9.0322 23.2234L9.02809 23.2275Z" fill="black"></path><path d="M22.4602 11.5207C22.4602 10.9003 22.2096 10.4113 21.7535 9.98397C20.2003 8.54585 18.6718 7.07486 17.1145 5.64085C16.2516 4.84783 14.2013 2.94951 13.0796 1.91406C13.9096 2.9906 13.2152 3.85758 11.2511 5.82164C11.2388 5.83397 11.2264 5.84629 11.2141 5.85862C11.2634 5.90793 11.3086 5.94902 11.3661 6.00243C12.9193 7.45699 14.4971 8.97728 16.1777 10.4031C17.209 11.3563 17.283 11.5002 16.2105 12.4C14.5875 13.7683 12.833 15.3091 11.2675 16.7924C11.6127 17.1212 11.8962 17.3923 11.9784 17.4704C12.8905 18.3497 13.5151 19.2989 13.5356 20.6548C14.6944 19.607 17.7267 16.5747 18.1048 16.5582C18.3677 16.5459 18.3431 17.0513 18.3431 17.4745C18.3431 18.1895 18.4663 18.6086 17.6076 19.4673C16.227 20.8479 14.9409 22.0272 13.5233 23.2475C13.511 25.1869 13.4904 27.6646 13.4863 28.8521C14.1766 28.2933 14.567 27.9646 15.1011 27.4962C17.3117 25.5485 19.3744 23.6667 21.548 21.4519C21.9712 21.0205 22.4643 20.5644 22.4684 19.9029C22.489 17.1088 22.4684 14.3148 22.4684 11.5166L22.4602 11.5207Z" fill="black"></path><path d="M31.1669 10.9209C34.2075 9.36777 36.9605 10.2306 38.1438 13.1274C39.2738 15.8968 38.4356 19.2168 35.3867 20.4824C34.1746 20.9878 32.9255 20.9344 31.7627 20.2112C31.5079 20.0509 31.323 19.8414 31.0518 20.2687C30.7601 20.7289 30.2013 20.6467 29.7657 20.6426C26.9553 20.6344 27.1319 20.9015 27.136 17.9102C27.136 14.5327 27.136 11.151 27.136 7.77351C27.136 6.6148 27.2963 6.45044 28.4755 6.45044C30.982 6.45044 31.2491 6.50386 31.171 9.16232C31.1546 9.70881 31.171 10.2553 31.171 10.9127L31.1669 10.9209ZM34.5074 15.3832C34.4951 14.4053 33.8706 13.8177 32.8639 13.8342C31.9311 13.8506 31.3148 14.471 31.3107 15.3914C31.3107 16.3611 31.9558 17.0103 32.9173 17.0062C33.8788 17.0021 34.5198 16.3447 34.5074 15.3832Z" fill="black"></path><path d="M65.3037 19.9648C65.3037 21.0742 65.2914 22.0645 65.3037 23.0711C65.3119 24.1395 65.0941 24.4065 64.034 24.4148C60.7428 24.4353 61.2646 24.6407 61.2482 21.8056C61.2276 18.3952 61.24 14.9807 61.2482 11.5703C61.2482 10.4855 61.3961 10.2637 62.4562 10.2472C63.0397 10.239 63.6231 10.2637 64.2066 10.2637C64.3586 10.2637 64.5887 10.2637 64.6545 10.3417C65.4475 11.2827 66.109 10.3828 66.8158 10.2061C68.7059 9.7295 70.2056 10.4198 71.4178 11.8127C72.8394 13.444 73.1065 16.1189 72.1122 18.0501C70.7562 20.6839 68.1388 21.4604 65.3119 19.973L65.3037 19.9648ZM66.9349 13.8302C66.0104 13.8466 65.3859 14.4753 65.3777 15.3916C65.3735 16.3449 66.0433 17.0105 66.9925 16.9982C67.9457 16.9858 68.6237 16.3079 68.6073 15.3793C68.5908 14.4465 67.9087 13.8138 66.9349 13.8302Z" fill="black"></path><path d="M84.7718 15.4411C84.7718 16.7929 84.7595 18.1407 84.7718 19.4925C84.78 20.228 84.4636 20.6183 83.7158 20.6183C83.0132 20.6183 82.3065 20.6183 81.5997 20.6183C81.5093 20.6183 81.3737 20.5567 81.3285 20.5074C80.5437 19.6733 79.8904 20.4745 79.1713 20.6471C77.6675 21.0128 76.3362 20.6348 75.1446 19.6486C72.6259 17.5613 72.6916 12.7826 75.576 10.8802C77.0306 9.92284 78.5263 9.73793 80.0876 10.5926C80.404 10.7652 80.6259 10.9953 80.9587 10.5063C81.2381 10.0954 81.8216 10.1324 82.2654 10.1283C85.0389 10.0954 84.7718 10.1735 84.7718 12.7703C84.7718 13.6619 84.7718 14.5495 84.7718 15.4411ZM80.6341 15.3754C80.6136 14.4221 79.9479 13.8099 78.9536 13.8345C77.9839 13.8592 77.3634 14.5207 77.4045 15.4945C77.4415 16.4067 78.0948 17.0148 79.0275 17.0066C79.989 16.9984 80.6506 16.3245 80.6341 15.3754Z" fill="black"></path><path d="M49.9363 19.4674C49.9486 20.1987 49.6651 20.5603 48.9008 20.5603C48.19 20.5603 47.4874 20.5644 46.7806 20.5603C46.5382 20.5603 46.1807 20.6014 46.1027 20.359C45.7822 19.377 45.3836 20.0426 44.9974 20.2686C43.8181 20.9548 42.6019 21.0164 41.4021 20.3672C40.0749 19.6523 39.3887 18.4812 39.3681 16.9856C39.3435 15.1407 39.4216 13.2958 39.401 11.455C39.3928 10.6168 39.701 10.3086 40.5433 10.3086C41.0939 10.3086 41.6486 10.3086 42.2033 10.3168C43.2429 10.3332 43.4031 10.4976 43.4113 11.5782C43.4195 12.8684 43.3867 14.1628 43.4278 15.453C43.4565 16.435 44.0687 16.9691 44.8864 16.7966C45.6507 16.6363 45.9054 16.0734 45.9095 15.3626C45.9178 14.0724 45.9506 12.7781 45.9013 11.4879C45.8685 10.5839 46.2424 10.3086 47.1093 10.3127C47.6312 10.3127 48.153 10.3127 48.6748 10.3209C49.7637 10.3332 49.9322 10.5058 49.9322 11.6317C49.9322 12.8931 49.9198 18.1196 49.9404 19.4756L49.9363 19.4674Z" fill="black"></path><path d="M100.813 13.67C101.286 12.9058 101.77 12.1251 102.12 11.4471C102.494 10.6459 103.11 10.3213 103.936 10.3131C104.548 10.3048 105.164 10.3048 105.777 10.3213C106.755 10.3459 106.96 10.6911 106.467 11.5129C105.9 12.462 105.308 13.403 104.696 14.3151C104.31 14.8904 104.33 15.3095 104.696 15.8806C105.427 17.0147 106.089 18.1981 106.759 19.3732C107.215 20.1745 107.038 20.4744 106.114 20.5196C102.929 20.6881 103.085 20.6018 101.516 17.8694C101.331 17.5489 101.105 17.2284 100.866 16.7887C100.866 17.5817 100.887 18.0871 100.891 18.6377C100.912 20.31 100.719 20.5401 99.0791 20.5443C96.3508 20.5566 96.7617 20.573 96.7452 18.2063C96.7288 15.9628 96.7617 13.7193 96.7288 11.4759C96.7165 10.5842 97.0945 10.2843 97.9533 10.2843C98.3806 10.2843 98.812 10.2802 99.2435 10.2843C100.661 10.3007 100.78 10.5801 100.805 12.0224C100.813 12.5894 100.813 13.0373 100.813 13.6659V13.67Z" fill="black"></path><path d="M85.6184 15.4493C85.6184 13.025 86.8223 11.3239 89.1233 10.4939C91.4325 9.6598 94.1361 10.2309 95.5208 11.8129C95.9769 12.3347 95.9564 12.7209 95.3565 13.0702C94.8018 13.3948 94.2471 13.7194 93.6924 14.0481C93.1377 14.3768 92.7186 14.5165 92.1228 14.0769C91.4489 13.5797 90.4587 13.7852 89.9574 14.3768C89.4602 14.9644 89.5013 15.8519 90.0519 16.4929C90.6107 17.1421 91.3462 17.2449 92.1967 16.6737C92.6898 16.345 93.0391 16.3943 93.5239 16.6737C94.1279 17.023 94.7073 17.401 95.3318 17.779C95.903 18.1283 96.0221 18.4775 95.5373 19.0199C94.0827 20.6553 91.4284 21.2182 89.0699 20.3512C86.8141 19.5212 85.6143 17.8242 85.6143 15.4534L85.6184 15.4493Z" fill="black"></path><path d="M55.7671 20.7333C54.3372 20.7415 53.0429 20.5484 51.8554 19.8869C51.4198 19.6444 51.0213 19.3404 51.0788 18.7446C51.1363 18.1324 51.654 18.0995 52.0814 17.9598C52.5457 17.8036 53.0264 17.6886 53.4907 17.5242C53.8975 17.3804 54.2509 17.3476 54.5878 17.6968C54.707 17.8201 54.9288 17.9557 55.0932 18.0091C55.3973 18.1118 56.2026 18.1324 56.3094 17.4914C56.3998 16.9449 55.7753 16.9367 55.3685 16.8463C54.5015 16.6449 53.614 16.534 52.8004 16.1436C50.8282 15.2068 50.4953 12.5771 52.1718 11.1842C53.9057 9.74607 57.2463 9.70498 58.9885 11.1143C59.2473 11.3239 59.4856 11.5828 59.6623 11.8622C59.954 12.3183 59.8102 12.6346 59.2966 12.8483C58.3269 13.251 57.2956 13.6906 56.2232 12.9182C55.8739 12.6675 55.2576 12.7497 55.1096 13.2017C54.9494 13.6906 55.5041 13.8221 55.8698 13.9331C56.6916 14.1796 57.5339 14.3604 58.3557 14.6028C59.6418 14.989 60.3567 15.8478 60.4389 17.2161C60.5129 18.5022 59.8595 19.5951 58.6433 20.1745C57.7065 20.6224 56.7121 20.7621 55.7753 20.7292L55.7671 20.7333Z" fill="black"></path></svg> 