<?xml version="1.0" encoding="UTF-8"?> <svg xmlns="http://www.w3.org/2000/svg" width="96" height="89" viewBox="0 0 96 89" fill="none"><path d="M56.8738 86.6466H36.9089V58.9403L41.7449 62.6847C41.9556 62.8394 42.1996 62.9219 42.4547 62.9219C42.732 62.9219 43.0204 62.8188 43.2312 62.6228L52.7367 53.9066L56.5411 54.9896C57.1289 55.1547 57.7501 54.8555 57.9275 54.2985C58.105 53.7518 57.7722 53.1742 57.1844 53.0091L45.7822 49.7805V43.0242C48.6328 40.7961 50.596 37.6294 51.1506 34.0397H51.328C53.7793 34.0397 55.7647 32.1933 55.7647 29.9137V27.8507C55.7647 26.1487 54.2673 24.7562 52.4372 24.7562H51.328V18.5671V17.5356V14.4411C51.328 6.47786 44.3625 0 35.7998 0C27.2371 0 20.2715 6.47786 20.2715 14.4411C20.2715 18.0204 20.2715 21.1665 20.2715 24.7562H19.1624C17.3323 24.7562 15.8349 26.1487 15.8349 27.8507V29.9137C15.8349 32.1933 17.8203 34.0397 20.2715 34.0397H20.449C21.0036 37.6294 22.9668 40.7961 25.8173 43.0242V49.7805L9.7456 54.3295C4.09997 55.9283 0.306641 60.6939 0.306641 66.1712V87.6781C0.306641 88.2454 0.805763 88.7096 1.4158 88.7096H56.8738C57.4839 88.7096 57.983 88.2454 57.983 87.6781C57.983 87.1108 57.4839 86.6466 56.8738 86.6466ZM50.3298 53.2258L42.3993 60.4979L37.5966 56.7741L44.8949 51.6785L50.3298 53.2258ZM52.4372 26.8192C53.0472 26.8192 53.5463 27.2834 53.5463 27.8507V29.9137C53.5463 31.0484 52.5481 31.9767 51.328 31.9767V26.8192H52.4372ZM35.7998 2.06301C43.1424 2.06301 49.1097 7.61252 49.1097 14.4411V16.7929L48.788 16.6176C44.8394 14.5236 40.3473 13.4096 35.7998 13.4096C31.2522 13.4096 26.7601 14.5236 22.8115 16.6176L22.4899 16.7929V14.4411C22.4899 7.61252 28.4571 2.06301 35.7998 2.06301ZM48.544 18.8663L45.4938 22.4146C42.4326 20.9809 39.1162 20.2691 35.7998 20.2691C32.4834 20.2691 29.1781 20.9809 26.1057 22.4146L23.0555 18.8663L23.9207 18.4124C27.5254 16.4835 31.6404 15.4726 35.7998 15.4726C39.9591 15.4726 44.0741 16.4835 47.6789 18.4021L48.544 18.8663ZM18.0532 29.9137V27.8507C18.0532 27.2834 18.5523 26.8192 19.1624 26.8192H20.2715V31.9767C19.0515 31.9767 18.0532 31.0484 18.0532 29.9137ZM22.4899 31.9767C22.4899 26.5716 22.4899 26.9636 22.4899 21.5069L24.9522 24.3642C25.2849 24.7562 25.8839 24.8696 26.3608 24.6221C32.2726 21.5688 39.338 21.5688 45.2498 24.6221C45.4162 24.7149 45.5937 24.7562 45.7822 24.7562C46.115 24.7562 46.4366 24.6221 46.6474 24.3642L49.1097 21.5069C49.1097 26.943 49.1097 26.551 49.1097 31.9767C49.1097 38.8053 43.1424 44.3548 35.7998 44.3548C28.4571 44.3548 22.4899 38.8053 22.4899 31.9767ZM35.7998 46.4178C38.6281 46.4178 41.279 45.6958 43.5639 44.4683V50.0281L35.7998 55.4435L28.0357 50.0281V44.4683C30.3205 45.6958 32.9714 46.4178 35.7998 46.4178ZM26.7158 51.6785L34.014 56.7741L29.2114 60.4979L21.2698 53.2258L26.7158 51.6785ZM2.52496 66.1712C2.52496 61.6016 5.68607 57.6406 10.3889 56.31L18.8629 53.9066L28.3684 62.6228C28.5791 62.8188 28.8675 62.9219 29.1448 62.9219C29.3999 62.9219 29.6439 62.8394 29.8547 62.6847L34.6906 58.9403V86.6466H13.6166V73.237C13.6166 72.6697 13.1174 72.2055 12.5074 72.2055C11.8974 72.2055 11.3982 72.6697 11.3982 73.237V86.6466H2.52496V66.1712Z" fill="#1D1B1E"></path><path d="M28.0352 29.9139C28.6452 29.9139 29.1443 29.4497 29.1443 28.8824C29.1443 28.315 29.6435 27.8509 30.2535 27.8509C30.8635 27.8509 31.3627 28.315 31.3627 28.8824C31.3627 29.4497 31.8618 29.9139 32.4718 29.9139C33.0819 29.9139 33.581 29.4497 33.581 28.8824C33.581 27.1804 32.0836 25.7878 30.2535 25.7878C28.4234 25.7878 26.926 27.1804 26.926 28.8824C26.926 29.4497 27.4251 29.9139 28.0352 29.9139Z" fill="#1D1B1E"></path><path d="M39.1267 29.9141C39.7368 29.9141 40.2359 29.4499 40.2359 28.8826C40.2359 28.3153 40.735 27.8511 41.3451 27.8511C41.9551 27.8511 42.4542 28.3153 42.4542 28.8826C42.4542 29.4499 42.9533 29.9141 43.5634 29.9141C44.1734 29.9141 44.6725 29.4499 44.6725 28.8826C44.6725 27.1806 43.1752 25.7881 41.3451 25.7881C39.5149 25.7881 38.0176 27.1806 38.0176 28.8826C38.0176 29.4499 38.5167 29.9141 39.1267 29.9141Z" fill="#1D1B1E"></path><path d="M32.4182 34.5969L32.152 34.3391C31.7194 33.9368 31.0207 33.9368 30.5881 34.3391C30.1555 34.7414 30.1555 35.3912 30.5881 35.7935L30.8432 36.0307C31.8858 37.0416 33.0837 38.166 35.8012 38.166C38.5186 38.166 39.7165 37.0416 40.7702 36.0411L41.0253 35.8038C41.4579 35.4015 41.4579 34.7517 41.0253 34.3494C40.5927 33.9471 39.894 33.9471 39.4614 34.3494L39.1952 34.6073C38.2191 35.5047 37.5869 36.1029 35.8012 36.1029C34.0154 36.1029 33.3832 35.5047 32.4182 34.5969Z" fill="#1D1B1E"></path><path d="M19.1612 78.3958H25.8161C26.4262 78.3958 26.9253 77.9316 26.9253 77.3643C26.9253 76.7969 26.4262 76.3328 25.8161 76.3328H19.1612C18.5511 76.3328 18.052 76.7969 18.052 77.3643C18.052 77.9316 18.5511 78.3958 19.1612 78.3958Z" fill="#1D1B1E"></path><path d="M94.5842 55.7012C64.8698 55.7012 78.1464 55.7012 61.3094 55.7012C60.6993 55.7012 60.2002 56.1653 60.2002 56.7327C60.2002 63.7882 60.2002 70.2764 60.2002 87.6779C60.2002 88.2452 60.6993 88.7094 61.3094 88.7094H94.5842C95.1942 88.7094 95.6933 88.2452 95.6933 87.6779C95.6933 70.4311 95.6933 63.7779 95.6933 56.7327C95.6933 56.1653 95.1942 55.7012 94.5842 55.7012ZM93.475 63.9532H83.4926V57.7642H93.475V63.9532ZM81.2742 68.0793L78.6123 66.2225C78.4126 66.0884 78.1797 66.0162 77.9468 66.0162C77.7138 66.0162 77.4809 66.0884 77.2813 66.2225L74.6193 68.0793C74.6193 64.3968 74.6193 66.6248 74.6193 57.7642H81.2742C81.2742 66.6248 81.2742 64.3968 81.2742 68.0793ZM62.4185 57.7642H72.401V63.9532H62.4185V57.7642ZM62.4185 86.6464V66.0162H72.401V70.1423C72.401 70.5342 72.6339 70.885 73.011 71.0603C73.3881 71.2357 73.8318 71.1944 74.1756 70.9675L77.9468 68.3371L81.7179 70.9675C82.0507 71.2047 82.5054 71.2357 82.8825 71.0603C83.2596 70.885 83.4926 70.5342 83.4926 70.1423V66.0162H93.475V86.6464H62.4185Z" fill="#1D1B1E"></path><path d="M76.8394 79.4258H65.7478C65.1378 79.4258 64.6387 79.89 64.6387 80.4573C64.6387 81.0246 65.1378 81.4888 65.7478 81.4888H76.8394C77.4495 81.4888 77.9486 81.0246 77.9486 80.4573C77.9486 79.89 77.4495 79.4258 76.8394 79.4258Z" fill="#1D1B1E"></path><path d="M70.1845 82.5195H65.7478C65.1378 82.5195 64.6387 82.9837 64.6387 83.551C64.6387 84.1184 65.1378 84.5825 65.7478 84.5825H70.1845C70.7945 84.5825 71.2936 84.1184 71.2936 83.551C71.2936 82.9837 70.7945 82.5195 70.1845 82.5195Z" fill="#1D1B1E"></path></svg> 