<?xml version="1.0" encoding="UTF-8"?> <svg xmlns="http://www.w3.org/2000/svg" width="107" height="28" viewBox="0 0 107 28" fill="none"><path d="M32.6348 4.18984C31.6566 4.14821 30.6783 4.16902 29.6793 4.16902C29.825 4.9391 29.9915 5.62594 30.0748 6.33358C30.6159 11.8074 26.3076 16.636 20.7713 16.7609C16.7752 16.865 13.1121 14.4507 11.6344 10.7043C11.5095 10.3921 11.3638 10.2881 11.0308 10.2881C7.61746 10.3089 4.22493 10.2881 0.811584 10.2881C0.686705 10.2881 0.541019 10.2881 0.374512 10.2881C0.395358 10.4546 0.395359 10.6003 0.416126 10.7251C2.24767 19.3834 10.781 25.107 19.5225 23.5044C27.3274 22.0891 32.9886 15.4497 33.0926 7.54074C33.1134 6.56252 32.9678 5.5635 32.8845 4.58528C32.8845 4.4604 32.7388 4.18984 32.6348 4.18984Z" fill="black"></path><path d="M20.4386 13.6601C24.0808 13.6809 26.9739 10.8295 27.0155 7.22884C27.0363 3.69061 24.1433 0.797598 20.6051 0.755972C17.0044 0.735157 14.0698 3.60736 14.0489 7.18721C14.0282 10.7254 16.9003 13.6393 20.4386 13.6601ZM20.5218 3.81549C22.4366 3.81549 23.956 5.33485 23.956 7.24965C23.956 9.12282 22.395 10.6422 20.5218 10.6422C18.6486 10.6422 17.1085 9.10201 17.1085 7.22884C17.1085 5.33485 18.6278 3.8363 20.5218 3.81549Z" fill="black"></path><path d="M63.9586 16.8022C63.9586 16.6565 63.9586 16.49 63.9586 16.3027C63.6256 16.3027 63.3342 16.3027 63.0428 16.3027C62.2103 16.3027 62.2103 16.3027 62.0022 17.0936C62.0022 17.1144 61.9606 17.1352 61.9189 17.1768C61.1905 16.4276 60.2955 16.0529 59.2549 16.1154C58.1934 16.1778 57.2984 16.5941 56.6116 17.385C55.3836 18.8002 55.3836 21.0481 56.5907 22.4841C57.1735 23.171 57.902 23.6289 58.7969 23.7537C59.9833 23.9203 61.0656 23.6913 61.9397 22.6298C61.9397 23.0669 61.9605 23.3999 61.9397 23.7121C61.8356 24.6695 61.2112 25.2939 60.233 25.4396C59.2548 25.5853 58.3599 25.1482 57.9852 24.3573C57.9436 24.2741 57.8603 24.1284 57.7771 24.1284C57.1735 24.1075 56.5491 24.1284 55.9455 24.1284C56.0912 25.5853 56.9446 26.5427 58.4639 26.9798C61.0864 27.7499 64.1251 26.4803 63.9794 22.9212C63.8961 20.9232 63.9586 18.8627 63.9586 16.8022ZM59.8584 22.0679C58.6305 22.0679 57.7563 21.2146 57.7563 20.0074C57.7355 18.7794 58.6096 17.9053 59.8584 17.9053C61.0864 17.9053 61.9605 18.7586 61.9605 19.9866C61.9397 21.1729 61.0656 22.0679 59.8584 22.0679Z" fill="black"></path><path d="M46.0592 13.6396C45.9552 13.369 45.8095 13.2441 45.5181 13.2649C45.0602 13.2858 44.6023 13.3065 44.1236 13.2649C43.7698 13.2441 43.6449 13.369 43.52 13.6812C42.2504 16.9072 40.96 20.1332 39.6696 23.3593C39.628 23.4841 39.5864 23.609 39.5239 23.7963C40.1275 23.7963 40.7103 23.7755 41.2722 23.7963C41.5428 23.7963 41.6677 23.6923 41.7509 23.4425C41.9799 22.8389 42.2296 22.2562 42.4378 21.6526C42.521 21.4237 42.6251 21.3612 42.8748 21.3612C44.1444 21.3612 45.414 21.3821 46.7044 21.3612C46.975 21.3612 47.0791 21.4445 47.1623 21.6734C47.3913 22.277 47.6202 22.9014 47.87 23.505C47.9116 23.609 48.0573 23.7547 48.1822 23.7755C48.8066 23.7964 49.4309 23.7755 50.1178 23.7755C49.9721 23.3801 49.8264 23.0471 49.7015 22.7141C48.4527 19.717 47.2456 16.6783 46.0592 13.6396ZM43.1662 19.7794C43.6865 18.4266 44.2069 17.1153 44.7688 15.6792C45.3308 17.0945 45.8303 18.4266 46.3714 19.7794C45.2683 19.7794 44.2485 19.7794 43.1662 19.7794Z" fill="black"></path><path d="M43.1455 11.3291C44.436 11.7662 45.768 11.7662 47.0584 11.2875C48.5153 10.7672 49.3686 9.68489 49.66 8.1031C48.994 8.1031 48.3904 8.1031 47.766 8.1031C47.5371 8.1031 47.4538 8.20716 47.3498 8.39448C47.1208 8.7483 46.8919 9.14375 46.5589 9.39351C45.3933 10.226 43.4785 9.85139 42.6252 8.68587C41.6886 7.41627 41.7094 4.9187 42.646 3.6491C43.3329 2.73333 44.2903 2.48357 45.3725 2.58764C46.3716 2.6917 47.0792 3.19121 47.3914 4.16943C47.4122 4.25268 47.5163 4.37756 47.5995 4.37756C48.2656 4.39837 48.9316 4.37756 49.6184 4.37756C49.5976 4.25268 49.5976 4.14862 49.5768 4.08618C49.1397 2.17138 47.8493 1.02666 45.6847 0.797714C42.9374 0.485518 40.7937 1.81755 40.086 4.41919C39.8155 5.41821 39.7738 6.43806 39.982 7.43708C40.3566 9.31026 41.314 10.7047 43.1455 11.3291Z" fill="black"></path><path d="M69.6403 16.1994C67.226 15.8248 65.3736 17.1152 64.999 19.4462C64.6452 21.6316 65.9772 23.5672 68.0377 23.8794C70.1398 24.2124 72.0754 23.1093 72.3668 21.361C71.8257 21.361 71.3053 21.361 70.785 21.361C70.5145 21.361 70.3688 21.4235 70.2023 21.6524C69.7652 22.256 68.9327 22.4641 68.1626 22.1728C67.4549 21.9022 67.0179 21.2778 67.0387 20.5285C68.891 20.5285 70.7434 20.5285 72.5749 20.5285C72.908 18.364 71.6384 16.5116 69.6403 16.1994ZM70.5145 19.2589C69.3697 19.2589 68.2458 19.2589 67.0595 19.2589C67.1844 18.3223 68.0585 17.6771 69.0367 17.7812C69.9317 17.8644 70.5561 18.4888 70.5145 19.2589Z" fill="black"></path><path d="M96.6975 16.3649C95.4487 15.8446 94.0542 16.1776 93.1384 17.1766C93.0968 17.2182 93.0552 17.2598 92.9511 17.3431C92.8887 16.9685 92.8471 16.6355 92.7846 16.3233C92.181 16.3233 91.6399 16.3233 91.0571 16.3233C91.0571 18.8208 91.0571 21.2768 91.0571 23.7535C91.7231 23.7535 92.3684 23.7535 93.0344 23.7535C93.0344 23.587 93.0344 23.4205 93.0344 23.2748C93.0344 22.1093 93.0136 20.9438 93.0552 19.799C93.0552 19.4452 93.1593 19.0498 93.3258 18.7168C93.6588 18.0091 94.4705 17.6969 95.2614 17.8634C95.9066 18.0091 96.3021 18.5294 96.3645 19.3203C96.3854 19.5077 96.3853 19.7158 96.3853 19.9031C96.3853 21.0478 96.3853 22.1717 96.3853 23.2956C96.3853 23.4413 96.3853 23.587 96.3853 23.7535C97.0722 23.7535 97.7174 23.7535 98.4458 23.7535C98.3834 21.922 98.3834 20.1321 98.2377 18.3421C98.1545 17.4472 97.5924 16.7395 96.6975 16.3649Z" fill="black"></path><path d="M78.9024 16.2615C77.5911 15.9493 76.4464 16.2199 75.5307 17.4062C75.4682 16.99 75.4266 16.6778 75.385 16.3448C74.8022 16.3448 74.2402 16.3448 73.6575 16.3448C73.6575 18.8423 73.6575 21.2983 73.6575 23.775C74.3235 23.775 74.9687 23.775 75.6347 23.775C75.6347 23.5669 75.6347 23.4212 75.6347 23.2547C75.6347 22.0267 75.6139 20.7988 75.6763 19.5708C75.7179 18.5093 76.5088 17.8433 77.5287 17.8641C78.4445 17.885 78.944 18.5093 78.9648 19.6124C78.9648 19.7373 78.9648 19.8622 78.9648 19.9871C78.9648 21.111 78.9648 22.2141 78.9648 23.338C78.9648 23.4837 78.9648 23.6293 78.9648 23.775C79.6724 23.775 80.2968 23.775 80.942 23.775C80.942 22.1308 81.0045 20.5282 80.9212 18.9256C80.8379 17.4687 80.0887 16.5321 78.9024 16.2615Z" fill="black"></path><path d="M11.3431 4.16916C11.2182 4.16916 11.0725 4.16916 10.906 4.16916C7.55514 4.16916 4.20424 4.16916 0.853334 4.16916C0.770084 4.16916 0.666022 4.14835 0.603579 4.16916C0.478701 4.2316 0.312192 4.33567 0.312192 4.41892C0.208128 5.33469 0.104064 6.22966 0 7.18706C3.70472 7.18706 7.28457 7.18706 10.8644 7.18706C11.0309 6.18803 11.1974 5.20982 11.3431 4.16916Z" fill="black"></path><path d="M84.7507 14.3679C84.1471 14.3679 83.5851 14.3679 82.9816 14.3679C82.9191 14.8882 82.8359 15.3878 82.8151 15.8873C82.7942 16.2411 82.6486 16.3452 82.3364 16.3243C82.0658 16.3035 81.7952 16.3243 81.5247 16.3243C81.5247 16.9279 81.5247 17.4691 81.5247 18.031C81.9409 18.031 82.3364 18.031 82.7526 18.031C82.7526 18.26 82.7526 18.4681 82.7526 18.6346C82.7735 19.6961 82.7526 20.7575 82.8151 21.819C82.8567 22.6099 83.2522 23.1927 83.9806 23.5257C84.8548 23.9003 85.7705 23.7962 86.6863 23.7754C86.6863 23.1718 86.6863 22.6307 86.6863 22.0688C86.3117 22.0688 85.9787 22.0688 85.6457 22.0688C85.0005 22.048 84.7923 21.8606 84.7715 21.2154C84.7507 20.5286 84.7715 19.8418 84.7507 19.1549C84.7507 18.7803 84.7507 18.4057 84.7507 17.9894C85.4583 17.9894 86.0827 17.9894 86.7279 17.9894C86.7279 17.4066 86.7279 16.8863 86.7279 16.3035C86.0619 16.3035 85.4375 16.3035 84.7507 16.3035C84.7507 15.6375 84.7507 15.0131 84.7507 14.3679Z" fill="black"></path><path d="M61.1904 10.9751C61.1904 10.0594 61.1695 9.16439 61.1904 8.24861C61.2112 6.99983 62.1478 6.06324 63.4174 6.04243C63.5631 6.04243 63.7088 6.04243 63.8753 6.04243C63.8753 5.29316 63.8753 4.60633 63.8753 3.89868C62.7514 3.89868 61.8772 4.35657 61.1696 5.29316C61.0863 4.81446 61.0447 4.41901 60.9822 4.02356C60.3787 4.02356 59.7959 4.02356 59.2131 4.02356C59.2131 6.52113 59.2131 8.97707 59.2131 11.4538C59.8792 11.4538 60.5035 11.4538 61.1904 11.4538C61.1904 11.2665 61.1904 11.1208 61.1904 10.9751Z" fill="black"></path><path d="M66.6643 10.9542C66.6643 10.0592 66.6643 9.16427 66.6643 8.26931C66.6851 7.16621 67.3719 6.33369 68.4542 6.08393C68.7456 6.0215 69.0161 6.0215 69.3283 5.97987C69.3283 5.27222 69.3283 4.56458 69.3283 3.85693C68.1836 3.85693 67.3511 4.33564 66.6226 5.25141C66.5602 4.7519 66.4978 4.37726 66.4561 3.98181C65.8525 3.98181 65.2698 3.98181 64.687 3.98181C64.687 6.47938 64.687 8.93533 64.687 11.4121C65.353 11.4121 65.9982 11.4121 66.6643 11.4121C66.6643 11.2664 66.6643 11.1207 66.6643 10.9542Z" fill="black"></path><path d="M52.6153 17.6352C52.5737 17.2189 52.5528 16.9275 52.4904 16.6153C52.4696 16.5113 52.3655 16.324 52.2615 16.324C51.7412 16.3031 51.2 16.3031 50.6797 16.3031C50.6797 18.8423 50.6797 21.2983 50.6797 23.7542C51.3457 23.7542 51.9701 23.7542 52.6569 23.7542C52.6569 22.6511 52.6569 21.6104 52.6569 20.5698C52.6569 19.4667 53.3646 18.6342 54.4468 18.4052C54.7382 18.3428 55.0088 18.3428 55.321 18.322C55.321 17.6143 55.321 16.9275 55.321 16.2199C54.1971 16.199 53.3438 16.6986 52.6153 17.6352Z" fill="black"></path><path d="M88.0391 16.3031C87.7061 16.2822 87.6021 16.3863 87.6021 16.7193C87.6229 18.9463 87.6021 21.1525 87.6021 23.3795C87.6021 23.5044 87.6229 23.6501 87.6229 23.775C88.3097 23.775 88.9341 23.775 89.5793 23.775C89.5793 21.2982 89.5793 18.8215 89.5793 16.3239C89.0798 16.303 88.5594 16.3239 88.0391 16.3031Z" fill="black"></path><path d="M88.6636 12.9934C87.9144 12.9934 87.394 13.4513 87.394 14.1381C87.394 14.8041 87.9144 15.262 88.622 15.262C89.3297 15.262 89.85 14.8041 89.85 14.1381C89.8708 13.4513 89.3921 13.0142 88.6636 12.9934Z" fill="black"></path><path d="M83.4811 6.7287C83.5851 7.0409 83.6268 7.37391 83.6476 7.54041C83.606 7.37391 83.5643 7.0409 83.4811 6.7287Z" fill="black"></path><path d="M82.0659 5.56323C82.0869 5.56323 82.1079 5.56323 82.1499 5.58424C82.1289 5.56323 82.0869 5.56323 82.0659 5.56323Z" fill="black"></path><path d="M81.8785 3.79468C79.6515 3.79468 78.0281 5.45972 78.0281 7.72835C78.0281 9.99697 79.6307 11.6412 81.8369 11.6412C84.0639 11.6412 85.6873 9.99697 85.6873 7.70753C85.6873 5.45972 84.0639 3.81549 81.8785 3.79468ZM83.1689 9.26851C82.7943 9.68478 82.3364 9.91372 81.7952 9.87209C81.712 9.87209 81.6287 9.85128 81.5455 9.85128C80.8795 9.7264 80.4216 9.33095 80.1926 8.66494C79.9845 8.04054 79.9845 7.39534 80.1926 6.77095C80.4216 6.04249 81.0668 5.56379 81.8161 5.54298C81.8993 5.54298 81.9826 5.54298 82.045 5.56379C82.0658 5.56379 82.0866 5.56379 82.1282 5.5846C82.1699 5.5846 82.2115 5.60541 82.2531 5.60541C82.3156 5.62623 82.378 5.64704 82.4404 5.66785H82.4613C82.9191 5.85517 83.2938 6.22981 83.4603 6.72932C83.5644 7.04152 83.606 7.37452 83.6268 7.54103C83.6268 8.26949 83.5643 8.83144 83.1689 9.26851Z" fill="black"></path><path d="M81.8369 5.54224C81.9202 5.54224 82.0034 5.54224 82.0659 5.56305C81.9826 5.54224 81.9202 5.54224 81.8369 5.54224Z" fill="black"></path><path d="M80.2136 8.6642C80.0054 8.0398 80.0054 7.3946 80.2136 6.77021C80.0054 7.3946 79.9846 8.0398 80.2136 8.6642C80.4217 9.33021 80.8796 9.72566 81.5456 9.85054C81.6288 9.87135 81.7121 9.87135 81.7954 9.87135C81.7121 9.87135 81.6288 9.85054 81.5664 9.85054C80.8796 9.72566 80.4217 9.3094 80.2136 8.6642Z" fill="black"></path><path d="M82.1492 5.58423C82.1908 5.58423 82.2324 5.60504 82.274 5.60504C82.2324 5.58423 82.1908 5.58423 82.1492 5.58423Z" fill="black"></path><path d="M54.1557 11.6412C56.3827 11.6412 58.0061 9.99697 58.0061 7.70753C58.0061 5.43891 56.4035 3.79468 54.1973 3.79468C51.9703 3.79468 50.3469 5.45972 50.3469 7.72835C50.3469 9.97616 51.9495 11.6412 54.1557 11.6412ZM52.5323 6.77095C52.7612 6.04249 53.4064 5.56379 54.1557 5.54298C54.8634 5.52216 55.571 6.00086 55.8208 6.72932C55.9248 7.04152 55.9665 7.37452 55.9873 7.54103C55.9664 8.26948 55.8832 8.83143 55.4878 9.26851C55.0507 9.74721 54.5304 9.97615 53.8643 9.85127C53.1983 9.7264 52.7196 9.31014 52.5115 8.66494C52.3242 8.04054 52.3449 7.39534 52.5323 6.77095Z" fill="black"></path><path d="M103.15 24.0035C105.377 24.0035 107 22.3593 107 20.0698C107 17.8012 105.397 16.157 103.191 16.157C100.964 16.157 99.3408 17.822 99.3408 20.0906C99.3199 22.3385 100.943 23.9827 103.15 24.0035ZM101.505 19.1332C101.734 18.4048 102.379 17.9261 103.129 17.9053C103.836 17.8844 104.544 18.3632 104.794 19.0916C104.898 19.4038 104.939 19.7368 104.96 19.9033C104.939 20.6318 104.856 21.1937 104.461 21.6308C104.024 22.1095 103.503 22.3385 102.837 22.2136C102.171 22.0887 101.693 21.6724 101.485 21.0272C101.318 20.4028 101.318 19.7576 101.505 19.1332Z" fill="black"></path><path d="M73.9696 3.81537C71.7218 3.56561 69.911 5.08496 69.7237 7.41603C69.5364 9.74709 71.0141 11.4954 73.3244 11.6411C75.1351 11.766 77.0083 10.4755 77.0707 9.03945C76.5504 9.03945 76.0301 9.03945 75.5306 9.03945C75.2808 9.03945 75.0935 9.08106 74.9478 9.31002C74.5107 9.9136 73.7198 10.1217 72.9497 9.87197C72.2421 9.64303 71.7842 9.01863 71.7634 8.22773C73.5949 8.22773 75.4473 8.22773 77.3205 8.22773C77.6327 5.81342 76.3006 4.06512 73.9696 3.81537ZM71.8258 6.91652C71.8258 6.12562 72.5959 5.48041 73.5533 5.4596C74.5107 5.43878 75.2184 6.02155 75.2808 6.91652C74.1153 6.91652 72.9706 6.91652 71.8258 6.91652Z" fill="black"></path></svg> 