<?xml version="1.0" encoding="UTF-8"?> <svg xmlns="http://www.w3.org/2000/svg" width="152" height="153" viewBox="0 0 152 153" fill="none"><path d="M75.7296 55.964V98.94H54.9901L36.5474 73.576V98.94H20.6719V55.964H41.4114L59.8541 81.328V55.964H75.7296Z" fill="black"></path><path d="M131.801 55.964V98.94H111.061L92.6185 73.576V98.94H76.7429V55.964H97.4825L115.925 81.328V55.964H131.801Z" fill="black"></path><path d="M76 153C34.1156 153 0 118.66 0 76.5C0 34.34 34.1156 0 76 0C117.884 0 152 34.272 152 76.5C152 118.728 117.884 153 76 153ZM76 0.68C34.4533 0.68 0.675556 34.68 0.675556 76.5C0.675556 118.32 34.4533 152.32 76 152.32C117.547 152.32 151.324 118.32 151.324 76.5C151.324 34.68 117.479 0.68 76 0.68Z" fill="black"></path></svg> 