<svg xmlns="http://www.w3.org/2000/svg" width="23" height="22" viewBox="0 0 23 22" fill="none"><path d="M11.4998 10.9999C14.0311 10.9999 16.0832 8.94789 16.0832 6.41659C16.0832 3.88528 14.0311 1.83325 11.4998 1.83325C8.96853 1.83325 6.9165 3.88528 6.9165 6.41659C6.9165 8.94789 8.96853 10.9999 11.4998 10.9999Z" stroke="white" stroke-width="2"></path><path d="M16.0836 12.8333H16.4062C17.0764 12.8334 17.7234 13.0783 18.2257 13.5219C18.7281 13.9655 19.0511 14.5773 19.1342 15.2423L19.4926 18.1059C19.5249 18.3639 19.5019 18.6258 19.4252 18.8742C19.3485 19.1226 19.2198 19.3518 19.0477 19.5467C18.8756 19.7416 18.6641 19.8977 18.4271 20.0045C18.1901 20.1114 17.933 20.1666 17.6731 20.1666H5.32739C5.0674 20.1666 4.81038 20.1114 4.57338 20.0045C4.33637 19.8977 4.12481 19.7416 3.95273 19.5467C3.78065 19.3518 3.65198 19.1226 3.57527 18.8742C3.49856 18.6258 3.47556 18.3639 3.5078 18.1059L3.8653 15.2423C3.94844 14.577 4.27177 13.965 4.77448 13.5213C5.2772 13.0777 5.92466 12.833 6.59514 12.8333H6.91689" stroke="white" stroke-width="2" stroke-linecap="round" stroke-linejoin="round"></path></svg>