<?xml version="1.0" encoding="UTF-8"?> <svg xmlns="http://www.w3.org/2000/svg" width="79" height="92" viewBox="0 0 79 92" fill="none"><path d="M78.996 90.834L72.5914 20.2293C72.538 19.673 72.079 19.2558 71.524 19.2558H62.0238L62.1945 17.3837C62.6002 12.9335 61.1058 8.49395 58.1063 5.19907C55.0961 1.89349 50.8157 0 46.3644 0C44.2296 0 42.2014 0.417209 40.3334 1.17674C38.4654 0.417209 36.4479 0 34.3878 0C26.1045 0 19.3049 6.23674 18.547 14.4953L18.12 19.2558H7.47768C6.92261 19.2558 6.46361 19.673 6.41024 20.2293L0.00560987 90.834C-0.0264133 91.1335 0.0803305 91.433 0.283144 91.6577C0.485957 91.8716 0.774165 92 1.07305 92C7.8406 92 68.8874 92 77.9286 92C78.5584 92 79.0494 91.4116 78.996 90.834ZM65.1193 81.8158L55.7472 88.427L61.8209 21.3953H65.1193V81.8158ZM66.1761 83.6879L74.6516 89.8605H57.4231L66.1761 83.6879ZM76.6477 88.673L67.2542 81.8265V21.3953H70.5526L76.6477 88.673ZM46.3644 2.13953C50.2286 2.13953 53.9326 3.77628 56.5265 6.63256C59.131 9.48884 60.4226 13.3293 60.0703 17.1912L59.8782 19.2558H50.0578L50.2286 17.3837C50.6342 12.9335 49.1398 8.49395 46.1403 5.19907C45.2116 4.18279 44.1442 3.30558 43.002 2.56744C44.0801 2.3 45.2009 2.13953 46.3644 2.13953ZM47.9122 19.2558H32.2316L32.6479 14.6879C33.0962 9.69209 36.117 5.55209 40.3441 3.51954C41.9239 4.27907 43.3649 5.31674 44.5605 6.63256C47.165 9.48884 48.4566 13.3293 48.1044 17.1912L47.9122 19.2558ZM20.6819 14.6879C21.333 7.53116 27.2253 2.13953 34.3878 2.13953C35.5086 2.13953 36.6081 2.2893 37.6862 2.55674C33.726 5.12419 30.9827 9.42465 30.5237 14.4953L30.086 19.2558H20.2656L20.6819 14.6879ZM8.44904 21.3953C31.954 21.3953 35.8715 21.3953 59.6754 21.3953L53.4629 89.8605H2.24723L8.44904 21.3953Z" fill="#1D1B1E"></path></svg> 