<svg xmlns="http://www.w3.org/2000/svg" width="19" height="22" viewBox="0 0 19 22" fill="none"><path d="M9.3 11C9.905 11 10.4231 10.7844 10.8543 10.3532C11.2848 9.92273 11.5 9.405 11.5 8.8C11.5 8.195 11.2848 7.6769 10.8543 7.2457C10.4231 6.81523 9.905 6.6 9.3 6.6C8.695 6.6 8.17727 6.81523 7.7468 7.2457C7.3156 7.6769 7.1 8.195 7.1 8.8C7.1 9.405 7.3156 9.92273 7.7468 10.3532C8.17727 10.7844 8.695 11 9.3 11ZM9.3 19.085C11.5367 17.0317 13.1958 15.1661 14.2775 13.4882C15.3592 11.8111 15.9 10.3217 15.9 9.02C15.9 7.02167 15.2627 5.38523 13.9882 4.1107C12.7144 2.8369 11.1517 2.2 9.3 2.2C7.44833 2.2 5.88523 2.8369 4.6107 4.1107C3.3369 5.38523 2.7 7.02167 2.7 9.02C2.7 10.3217 3.24083 11.8111 4.3225 13.4882C5.40417 15.1661 7.06333 17.0317 9.3 19.085ZM9.3 22C6.34833 19.4883 4.14393 17.1552 2.6868 15.0007C1.22893 12.8469 0.5 10.8533 0.5 9.02C0.5 6.27 1.38477 4.07917 3.1543 2.4475C4.9231 0.815833 6.97167 0 9.3 0C11.6283 0 13.6769 0.815833 15.4457 2.4475C17.2152 4.07917 18.1 6.27 18.1 9.02C18.1 10.8533 17.3714 12.8469 15.9143 15.0007C14.4564 17.1552 12.2517 19.4883 9.3 22Z" fill="white"></path></svg>